<?xml version="1.0" encoding="utf-8"?>
<svg width="24" height="24" viewBox="0 0 24 24" fill="none" xmlns="http://www.w3.org/2000/svg">
  <g>
    <path d="M9.8995 3.82842C9.8995 3.82842 14.1421 8.07109 14.1421 8.07109L4.24264 17.9706L0 17.9706L0 13.7279C0 13.7279 9.8995 3.82842 9.8995 3.82842ZM11.3137 2.41421C11.3137 2.41421 13.435 0.29289 13.435 0.29289C13.8256 -0.09763 14.4587 -0.09763 14.8492 0.29289C14.8492 0.29289 17.6777 3.12132 17.6777 3.12132C18.0682 3.51184 18.0682 4.14501 17.6777 4.53553C17.6777 4.53553 15.5563 6.65685 15.5563 6.65685C15.5563 6.65685 11.3137 2.41421 11.3137 2.41421Z" fill="#F0F8FF" transform="translate(3 3.026)" />
  </g>
</svg>