<?xml version="1.0" encoding="utf-8"?>
<svg width="24" height="24" viewBox="0 0 24 24" fill="none" xmlns="http://www.w3.org/2000/svg">
  <g>
    <path d="M11 17C7.68629 17 5 14.3137 5 11C5 7.68629 7.68629 5 11 5C14.3137 5 17 7.68629 17 11C17 14.3137 14.3137 17 11 17ZM10 0C10 0 12 0 12 0L12 3L10 3C10 3 10 0 10 0ZM10 19C10 19 12 19 12 19L12 22L10 22C10 22 10 19 10 19ZM2.51472 3.92893C2.51472 3.92893 3.92893 2.51472 3.92893 2.51472L6.05025 4.63604L4.63604 6.05025C4.63604 6.05025 2.51472 3.92893 2.51472 3.92893ZM15.9497 17.364C15.9497 17.364 17.364 15.9497 17.364 15.9497L19.4853 18.0711L18.0711 19.4853C18.0711 19.4853 15.9497 17.364 15.9497 17.364ZM18.0711 2.51472C18.0711 2.51472 19.4853 3.92893 19.4853 3.92893L17.364 6.05025L15.9497 4.63604C15.9497 4.63604 18.0711 2.51472 18.0711 2.51472ZM4.63604 15.9497C4.63604 15.9497 6.05025 17.364 6.05025 17.364L3.92893 19.4853L2.51472 18.0711C2.51472 18.0711 4.63604 15.9497 4.63604 15.9497ZM22 10C22 10 22 12 22 12L19 12L19 10C19 10 22 10 22 10ZM3 10C3 10 3 12 3 12L0 12L0 10C0 10 3 10 3 10Z" fill="#F0F8FF" transform="translate(1 1)" />
  </g>
</svg>