<?xml version="1.0" encoding="utf-8"?>
<svg width="24" height="24" viewBox="0 0 24 24" fill="none" xmlns="http://www.w3.org/2000/svg">
  <g>
    <path d="M10 20C4.47715 20 0 15.5229 0 10C0 4.47716 4.47715 0 10 0C15.5228 0 20 4.47716 20 10C20 15.5229 15.5228 20 10 20ZM10 18C14.4183 18 18 14.4183 18 10C18 5.58173 14.4183 2 10 2C5.58172 2 2 5.58173 2 10C2 14.4183 5.58172 18 10 18ZM5.00035 13.3193C7.07995 13.1679 9.117 12.2972 10.7071 10.7071C12.2972 9.117 13.1679 7.07996 13.3193 5.00036C13.6454 5.21738 13.955 5.46972 14.2426 5.75736C16.5858 8.1005 16.5858 11.8995 14.2426 14.2426C11.8995 16.5858 8.1005 16.5858 5.75736 14.2426C5.46971 13.955 5.21738 13.6454 5.00035 13.3193Z" fill="#343A53" transform="translate(2 1.997)" />
  </g>
</svg>